<?xml version="1.0" encoding="UTF-8"?>
<svg id="Layer_2" data-name="Layer 2" xmlns="http://www.w3.org/2000/svg" xmlns:xlink="http://www.w3.org/1999/xlink" viewBox="0 0 1588 1547">
  <defs>
    <style>
      .cls-1 {
        fill: #fff;
      }
    </style>
  </defs>
  <g id="Layer_1-2" data-name="Layer 1">
    <image width="1588" height="1547" xlink:href="I:\door.webp"/>
    <g>
      <path d="M836.96,351.78c1.93-1.45,8.89,10.39,11.82,12.47,8.75,6.23,23.09,6.12,27.4-5.03,10.74-27.76-6.92-70-4.23-100.23.26-2.97,2.58-5.69,2.37-8.76-.05-.81-5.69-13.68-6.37-14.87-.75-1.32-1.75-2.5-3.17-3.14-7.38-1.94-6.84,18.98-6.63,22.92,1.45,28.01,11.24,58.43,11.32,87.3.03,11.36-11.31,9.82-17.14,3.93-6.2-6.25-8.69-28.58-10.19-37.81-3.05-18.79-3.14-47.69-8.01-64.31-.89-3.03-4.33-6.9-7.09-4.63-1.7,1.4-1.49,21.72-1.3,25.49,1.06,21.26,7.08,45.43,7.55,66.07.43,18.64-15.26,19.46-30.01,21.83,6.56-6.52,15.74-36.92,1.9-37.26-6.97-.17-14.52,12.8-17.51,18.55-6.47,12.46-3.59,22.37-22.32,19.86-14.02-1.88-24.87-22.7-35.69-19.29-6.39,2.01-10.08,15.16-10.01,21.3.03,2.59,1.54,5.39,1.34,7.44-.5,5.37-27.84,20.94-33.56,25.07-18.13,13.11,2.47,8.81,12.08,5.85,13.12-4.04,25.09-11.39,31.05-24.12,5.14-.21,19.07,7.4,22.93,4.53l1.91-4.53,19.87,2.52c-2.64,20.17,34.58,51.32,39.1,19.28,1.42-10.05-1.51-15.38-4.88-24.2,10.87-.36,24.43-4.65,27.45-16.21ZM751.84,239.85c-11.33,1.65-57.49,21.31-68.28,27.74-5.27,3.14-19.72,14.93-7.14,15.37,21.47-12.22,53.65-17.26,74.12-29.44,2.95-1.76,9.16-7.4,9.11-10.91-.47-4.12-4.77-3.21-7.81-2.77ZM910.03,242.16c-1.88.64-2.17,3.21-2.66,4.85-7.36,24.84,2.97,56.2,5.62,81.71,1.38,13.25.17,28.51,2.52,41.12.84,4.48,5.56,4.64,7.59.13,1.04-2.31,2.13-10.85,2.36-13.85,2.04-26.87-3.06-81.55-9.04-108.14-.78-3.48-1.76-7.39-6.39-5.82ZM799.43,288.09c4.27-3.03-2.13-8.44-2.42-10.56-.61-4.4,2.9-7.63.34-13.96-5.57-13.73-28.34-.78-21.82,13.11,1.5,3.19,7.74,4.17,6.48,8.23-1.02,3.29-20.46,12.85-23.57,16.41-1.37,1.57-1.61,2.15-1.28,4.32,11.2.66,20.74-6.08,29.26-12.5,1.8-1.35,4.34-5.07,5.68-5.61,2.31-.94,5.87,1.61,7.34.57ZM692.47,294.59c-4.8,10.52-7.57,24.42,7.93,26.05,9.97,1.05,9.3-3.39,14-4.76,5.75-1.67,12.23,1.79,18.27-2.93,4.12-3.22,7.74-16.69,5.17-21.04-10.31-8.3-9.24,4.76-12.52,6.21-3.68,1.63-3.83-4.16-6.83-5.58-8.43-3.97-7.18,11.48-13.27,11.67-4.45.14-3.72-13.4-12.74-9.63ZM825.88,533.67c.42.64,14.07,3.15,7.72,6.15-12.24,5.8-42.29,8.64-55.56,6.14-27.9-5.27-27.49-24.78-30.71-49.09-1.16-8.78-4.07-62.41-7.59-64.72l-4.31-.65c-3.26.73-3.36,21.99-3.29,25.69.47,22.77,5.69,47.22,6.34,69.71.2,6.84.71,14.01-6.81,16.98-26.76,10.56-20.06-40.85-29.39-45.6-6.6-3.35-7.37,7.08-7.34,12.33.04,7.33,8.48,32.26-1.04,35.39-3.9,1.28-10.18.9-14.35,1.86-12.79,2.97-33.18,10.03-33.17,25.66l34.71,7.68c3.54,3.65-11.03,11.14-13.27,12.28-21.26,10.89-70.32,25.97-67.76-14.14.5-7.88,7.17-19.79,7.21-23.95.05-4.54-3.98-5.14-7.03-.79-17.39,24.8-15.23,68.53,22.87,69.09,17.02.25,58.64-17.44,66.95-32.89,10.52-19.53-4.53-18.13-17.98-22.45-1.31-.42-3.77-.32-3.47-2.11,13.55-3.86,32.57,1.95,36.17-16.21l10.06,10.49c14.72,5.99,27.43.33,32.94-14.21,7.86,9.04,18.99,16.21,31.18,17.42,24.27,2.41,50.21-.96,71.28-13.48,30.18,21.42,56.15-6.03,83.94-13.32,10.08-2.65,18.81-1.67,29.11-2.06,2.86-3.87,9.9-12.05,3.6-14.43-7.89-2.98-23.17-1.44-32.99-3.16-13.53-2.37-35.7-14.44-47.69-12.1-4.24.83-11.9,12.61-10.05,14.97,11.9,4.14,25.76,1.23,36.81,8.06-13.33,7.23-29.34,13.06-44.86,11.84,1.85-12.57,7.33-17.55-7.16-23.38-17.53-7.06-34.79-5.4-35.08,17ZM881.84,441.55c-2.46-2.45-28.31,7.05-33.07,8.7-16.83,5.81-58.24,20.14-71.04,29.95-3.27,2.51-13.12,13.12-5.98,14.77l97.59-36.62c6.19-2.94,12.86-9.44,12.49-16.8ZM986.17,447.9c-1.59.59-2.35,1.86-3.07,3.27-9.65,18.99,2.11,67.05,4.7,89.5,1.42,12.3.97,26.77,2.62,38.52.35,2.47,1.09,6.83,4.23,7.05,5.66.03,6.64-16.26,6.92-20.59,2.38-36.81-7.59-76.68-10.1-113.44-.25-2.57-2.56-5.01-5.31-4.31ZM638.68,505.13c2.17-1.5,5.06-31.51,8.86-36.66,5.18-7.03,13.23,7.26,14.86-2.68s-12.29-15.22-18.21-10.64c-3.68,2.85-7.21,21.22-9.25,26.3-7.39-8.85-12.33-23.26-26.26-21.92-8.58,18.17,9.7,15.51,15.92,22.3,5.44,5.94,2.85,23.05,14.08,23.31ZM687.7,472.36c1.6,1.89,12.67,7.15,15.02,6.47,2.59-2.38,6.58-9.49,5.65-12.71-2.42-2.99-11.55-10.37-15.18-9.45-3.38.85-8.79,11.8-5.48,15.7ZM916.31,565.19c-3.58.65-8.01,11.79-6.89,15.17l15.27,8.14,7.9-12.94c-.22-2.74-14-10.79-16.28-10.37ZM674.53,637.62c-.86-.87-11.54-6.48-12.88-6.56-5.95-.35-6.04,7.35-7.48,7.59-6.25,1.04-14.42-13.02-18.98,9.1,7.75,6.75,15.41,14.41,21.79,2.13,4.57-1.37,9.46,8.83,15.95-.17,2.08-2.89,4.44-9.21,1.6-12.09ZM819.49,684.67c3.74,1.57,6.31.37,9.92-.68,21.54-6.27,45.26-22.36,67.86-28.14,8.56-4.64,17.98-17.57.71-14.24-12.13,2.34-62.71,24.01-71.62,31.85-1.67,1.47-8.27,9.19-6.86,11.21ZM697,770.41c-2.94,3.44-46.5,7.26-53.95,7.77-27.67,1.89-94.18,6.71-118.09-1.58-5.76-2-8.75-5.31-12.81-9.61-3.17-.05-11.4,22.94,5.34,28.3,14.83,4.75,44.63,1.78,60.69,1.55,33.99-.5,84.65.55,116.91-7.78,9.48-2.45,11.42-5.56,12.24-15.2,2.72-32.09-10.1-74.57-4.69-101.95.57-2.89,3.32-6.02,3.28-9.09s-8.55-13.59-11.72-13.83c-4.56-.35-7.01,11.54-6.95,15.11.38,25.14,8.08,55.15,10.06,81.05.35,4.51,1.81,22.78-.29,25.24ZM761.24,660.66c-2.12-2.62-.98-11.97-7.29-7.23-5.31,3.99-13.26,31.53-5.97,37.31,11.82,9.39,27.44-2.01,26.57-16.59-.51-8.58-10.05-9.46-13.31-13.49ZM996.13,667.35c-2.41.76-6.25,11.32-5.25,13.55,1.29,2.86,14.23,9.58,16.87,8.22,2.44-1.25,7.22-10.2,5.69-13.15-1.17-2.25-14.38-9.54-17.31-8.62ZM902.79,720.59l4.73-7.13,10.39,4.36c15.68-9.91,4.13-21.57-9.91-21.34l-4.32,6.8c-2.81-1.57-10.29-6.13-13.12-4.33l-5.59,13.21c2.53,3.69,13.76,10.82,17.82,8.44ZM636.21,700.89c-11.81-3.25-30.05,19.31-30.05,29.31,0,8.63,7.54,5.44,12.57,9.97-6.18,5.6-15.02,1.82-23.1,4.33-1.9.59-3.49.22-1.21,2.55,1.77,1.81,19.22,5.33,22.36,4.92,8.89-1.19,22.43-18.24,23.15-27.35l-17.44-2.53,2.51-6.92c8.71,2.72,11.28-7.02,11.22-14.27ZM898.15,743.4c-5.67,7.58,4.67,21.95,3.46,26.42-1.11,4.08-7.78,4.21-11.03,2.74-9.49-4.3-18.78-55.31-20.56-66.71l-6.22-4.95c-9.91,14.22,6.86,42.51,1.18,56.07-3.26,7.79-22.05,11.46-29.64,9.74-3.44-.78-5.91-5.57-8.94-4.72-14.88,29.66,24.83,28.85,39.91,15.01,1.2-1.1,5.85-8.26,6.79-7.53,1.69,6.53,5.96,17.93,12.84,20.2,5.31,1.76,14.47,1.85,19.24-1.12,9.85-6.14,12.51-48.7-7.02-45.16ZM952.9,755.75c-4.53-.5-5.03.23-6.86,3.73-3.65,6.97-8.92,27.74-7.99,35.44,2.73,22.55,26.21,29.73,45.76,24.77,16.98-4.31,58.68-23.42,56.47-44.65-.95-9.14-14.08-8-14.9-11.28,4.56-16.05,9.34-36.18-1.99-50.43-7.96-10.01-19.59-13.46-26.61-.37-10.68,19.89-1.78,40.01,22.21,30.33,3.43,18.11-13.91,13.3-21.83,19.92-2.87,2.4-4.89,6.35-1.87,9.41,4.22,4.27,28.09.5,33.66,7.45.02,2.57-23.8,14.12-27.81,15.8-13.09,5.5-34.15,13.81-45.71,1.64-10.46-11.01-1.73-28.6-2.51-41.76ZM692.94,818.1c-7.13.89-15.75-.65-23.07,0-.31,2.67-.14,3.3,2.02,4.84,2.57,1.83,18.85,7.07,22.43,7.49,32.09,3.76,50.05-23.6,53.48-52.23l12.47-8.7c4.71,8.81,7.34,17.66,18.31,20.32,7.55,1.83,20.1.9,25.86-4.85,9.56-9.55,12.06-45.56-7.27-45.3-4.15,9.91.87,18.37,3.47,27.69-12.24,11.69-25.13,3.93-30.72-10.02-2.14-5.35-3.21-20.15-9.66-20.37-4.41.99-2.7,8.75-3.64,12.66-2.34,9.69-12.04,9.88-20.06,7.34l-2.5,1.28c-1.21,4.13-2.45,8.82-1.92,13.15.58,4.78,4.78,6.3,3.8,12.33-2,12.3-30.82,32.86-43,34.38ZM809.13,822.21c-2.06-2.45-13.07-8.75-16.23-7.73-8.91,10.48-7.2,17.09,5.75,21.35,8.71,2.87,13.71-9.78,10.48-13.62ZM759.14,823.24l-6.34,8.27-11.86-4.14c-2.49,2.63-8.37,10.89-6.91,14.38,8.9,7.07,16.54,14.06,22.61.12,8.92,4.14,15.75,6.91,18.69-5.08,1.58-6.43-10.68-12.46-16.19-13.56ZM985.41,849.35c2.48-1.83,9.84,6.16,14.88,3.06,2.02-3.31,6.58-10.2,3.84-13.81-1.63-2.14-13.32-8.04-16.35-6.21l-4.32,6.79c-11.84-8.29-17.11-5.75-19.42,8.19.62,3.9,11.89,8.69,15.67,10.26l5.69-8.28ZM507.79,977.7c-6.25,19.51-2.47,27.84,18.09,29.9,43.64,4.37,109.34.71,153.18-5.13,13.25-1.76,24.38-.79,25.77-16.62,2.8-31.95-9.48-78.73-3.47-105.71,1.03-4.6,5.05-5.94,2.49-11.83-.99-2.27-8.46-11.57-10.91-11.6-4.4-.04-6.14,9.66-6.88,13.14,2.19,34.53,9.07,70.3,10.04,104.79.32,11.48-16.44,10.71-25.62,11.77-36.42,4.2-80.82,6.05-117.21,3.77-10.54-.66-24.17.38-33.91-4.75-4.45-2.34-6.24-8.17-11.57-7.73ZM912.69,863.25c-10.32,1.44-69.92,27.16-76.98,34.04-1.16,1.14-6.32,7.97-5.7,9.35,2.41,3.62,5.96,1.69,9.39.57,23.48-7.7,47.97-22.54,72-30.23,4.75-4.31,13.31-15.4,1.29-13.72ZM787.88,883.37c-2.07-2.28-9.51-5.51-10.18-6.65-1.33-2.25.29-6.74-1.75-8.22l-4.87-.3c-5.03,9.28-17.57,34.42-4.29,40.62,17.26,8.06,31.5-14.01,21.09-25.45ZM950.04,918.75c.94-.82,6.3-10.64,6.41-11.73.37-3.8-6.81-4.5-8.44-7.44-1.79-6.11,11.96-11.05-5.11-17.24-8.24-2.99-9.27-2.65-12.91,5.73-4.47,10.29.55,6.41,6.39,12.92-5.21,9.91-7.84,11.82,3.72,16.55,2.85,1.16,7.46,3.38,9.94,1.21ZM633.66,910.44c-5.96-2.97-9.65.14-14.26,3.69-6.88,5.29-24.4,24.74-13.02,31.66,1.9,1.15,9.74,1.53,6.78,4.49s-19.69,2.36-24.33,2.48c-2.91,2.65,10.7,6.44,12.45,6.86,6.99,1.67,9.94,2.74,16.65-.83,4.71-2.51,19.63-18.77,18.17-23.91s-13.15-2.02-16.61-4.48c-3.11-7.78,6.98-5.05,9.89-7.54,1.26-1.08,5.14-11.22,4.29-12.41ZM701.66,1023.83c-6.84.77-14.83-.56-21.82,0,.13,1.47-.67,2.68.77,3.83,4.91,3.95,29.37,10.45,36,9.9,16.18-1.32,31.74-20.86,37.39-34.96,2.01-5.02,3.64-16,5.76-19.18,1.85-2.78,9.65-5.26,11.72-9.45,8.08,18.98,14.02,26.17,36.02,23.53,4.33-.52,10.14-3.72,13.75-3.55,4.89.23,11.01,4,17.5,3.73s15.01-6.08,17.48-6.2c2.89-.14,8.53,3.43,12.5,3.43,3.8,0,8.82-3.43,11.02-3.24,1.68.15,3.86,2.25,5.84,2.82,10.3,2.97,23.28,1.42,26.17-10.57,3.31-.56,3.56,3.32,5.6,4.98,16.12,13.16,39.59,5.27,42.69-15.91,1.07-7.33-.56-34.19-12.61-30.13-8.23,2.77,2.44,27.32.25,30.88-7.53,3.42-17.86,5.65-23.26-1.88-7.35-10.25-7.9-38.52-12.63-43.48-6.39-6.69-7.43,6.51-7.59,11.22-.52,16.07,12.81,43.9-14.93,37.47-3.56-2.1-1.19-14.28-7.91-12.89-4.33.9-5.29,12.71-10.18,13.55-9.82,1.68-2.11-8.28-6.1-11.37-6.26-4.86-8.87,5.66-12.56,8.84s-10.74,4.91-15.65,4.45c-2.58-1.91-.7-7.3-.09-9.98-5.15-5.78-8.66.93-12.66,3.31-9.57,5.68-24.12,11.6-33.97,3.47-9.32-7.69-8.65-29.96-14.3-33.09-1.23-.68-2.4-.75-3.75-.59-1.1,14.9-8.26,26.29-24.34,18.99-3.67.25-4.72,12.14-4.4,15.31.44,4.34,4.01,7.55,3.78,11.12-.51,7.71-21.16,26.99-28.27,30.41-3.79,1.83-13.25,4.76-17.24,5.21ZM1027.36,938.06c-12.6,2.83-20.82,47.36,5.94,42.1,2.87-.57,7.29-6.91,5.98-.28s-13.3,19.51-18.4,24.03c-8.22,7.29-20.51,14.38-31.53,15.85-2.07.28-24.9-.89-17.72,4.65,5.49,4.24,34.37,6.8,41.45,5.37,9.26-1.88,21.78-16.46,26.85-24.27,9.74-14.99,16.24-37.99,7.94-54.85-3.77-7.66-11.37-14.66-20.53-12.6ZM925.22,1033.53c3.55-7.32,9.57-11.18.31-16.63-7.49-4.4-15.55-7.33-16.28,4.43-13.13-6.09-17.22-7.84-21.12,8.16.16,3.28,11.61,9.13,14.39,9.3,6.03.37,6.04-8.02,8.74-8.65,4.7,1.5,8.59,5.17,13.97,3.39ZM766.02,1048.91c4.12-3.01,14.18,11.27,20.08-4.24,3.36-8.83-13.21-16.84-17.76-14.02l-4.53,6.79c-3.6,1.05-8.94-5.63-12.54-4.01-3.06,1.38-6.92,10.28-6.61,13.43.52,5.2,21.19,15.72,21.36,2.05ZM1008.72,1088.95c-10.3,1.18-35.55,11.69-46.49,15.9-9.92,3.81-65.32,24.8-62.95,36.78,2.28,3.15,5.46,1.84,8.51,1.04,14.13-3.67,36.23-15.39,51.03-21.28,12.42-4.94,44.14-13.47,51.4-22.16,1.9-2.28,3.46-5.02,4.87-7.64l-1.91-2.79c-1.52-.49-2.97-.02-4.46.15ZM690.63,1098.77c-3.15,1.03-4.81,11-5.56,14.19,2.46,31.51,8.54,63.18,9.73,94.79.63,16.9,3.72,19.03-13.24,21.65-26.3,4.07-54.33,4.25-80.94,5.1-19.86.63-70.35,4.74-85.79-7.62-1.91-1.53-4.05-6.49-6.31-6-6.89,8.49-7.81,23.37,4.27,27.99,15.67,6.01,49.32,3.33,66.64,3.08,33.68-.48,73.99-.42,106.91-6.55,12.97-2.42,17.26-3.34,18.49-17.67,2.74-32.05-9.09-70.9-4.92-100.93.57-4.09,4.47-9.64,4.37-12.59-.12-3.31-9.1-16.92-13.64-15.44ZM777.08,1128.56c-6.87-9.68-12.11-22.47-26.21-21.92-9.66,18.33,7.45,15.53,15.06,23.74,4.69,5.06,5.95,18.06,9.91,20.01,3.6,1.77,6.8.87,8.16-3.08,2.11-6.16,2.41-33.55,8.85-34.78,2.59-.5,6.58,4.65,9.2,3.03,10.11-9.83-10-21.09-15.92-15.36-4.33,4.2-6.47,22.08-9.05,28.35ZM1010.36,1159.82l13.02,4.5c2.51-.28,7.41-10.78,6.64-13.66-.86-3.21-12.61-9.35-15.65-9.39-4.03-.06-4.41,6.53-7.35,8.41-2.87.68-7.52-7.03-12.97-4.33-13.08,13.48-1.62,20.91,12.24,22.89l4.07-8.42ZM847.78,1146.19c-2.45.61-7.55,10.25-6.93,12.65,10.32,11.27,19.87,15.66,24.18-2.88-2.73-3.37-13.28-10.78-17.25-9.78ZM606.9,1194.64c-6,.74-13.17-.54-19.33,0,.34,4.53,12.28,7.86,15.88,8.42,10.73,1.68,16.04-2.76,22.8-10.26,2.04-2.26,10.44-13.33,9.39-15.64-2.11-4.62-19.52-.34-18.13-6.79.88-4.1,8.4-2.21,10.61-4.38,1.62-1.59,5.85-12.22,4.34-13.74-12.01-3.68-35.17,24.24-30.57,33.66,1.35,2.77,7.68,4.32,10.62,5.01,2.17,2.16-4.77,3.62-5.61,3.72ZM1076.33,1220.83c-.23,11.53-14.34,25.34-23.27,32.2-10.08,7.74-19.84,10.89-32.37,12.52-3.03.39-16.51-1.38-15.42,3.26,1.37,5.83,36.66,7.43,42.68,6.55,27.74-4.07,55.52-64.23,31.49-86.94-27.29-25.78-41.23,48.14-8.01,36.85,3.37-1.15,2.51-3.72,4.89-4.44ZM801.41,1203.37c3.28.89,14.27,0,18.7,0,1.46,0,13.52,3.75,15.25,4.69,1.44.79,2.1-.05,1.58,2.77-12.43,4.19-40.88,18.98-52.44,9.45-8.21-6.77-8.09-21.85-12.13-30.27-6.42-13.4-7.71,7.25-8.9,10.33-2.43,6.32-10.45,8.79-16.65,7.75-2.79-.47-4.5-4.27-7.02-.25-1.07,1.71-2.61,8.95-2.52,11.02.2,4.36,4.24,8.51,4.67,11.59,1.34,9.62-20.7,28.95-28.85,32.98-12.2,6.03-25.06,5.82-38.24,4.78-.77,4.15,1.66,4.52,4.52,6.07,40.56,21.88,68.11-6.55,73.39-45.99l12.51-9.95c2.68-.6,6.39,11.35,8.28,14.12,7.46,10.93,16.81,9.88,28.54,7.75,24.73-4.49,44.25-21.56,68.99-25.71,3.74,13.51,5.06,24.34,21.48,26.12,11.32,1.23,19.85-4.28,27.52-4.53,5.18-.17,12.71,4.79,23.36,3.32,5.84-.81,9.65-5.5,11.5-5.87,4.25-.86,10.41,6.48,20.74,1.97,1.54-.67,3.38-3.23,4.01-3.24.82-.01,8.81,5.98,14.97,6,24.02.08,32.98-29.89,22.9-47.82-4.29-7.63-11.71-8.35-12.37,2.28-.82,13.13,12.33,25.98-8.09,26.89-11.66.52-8.32-5.47-11.95-11.71-6.5-11.18-9.06,10.87-14.2,11.73-9.32,1.56-2.46-7.11-5.7-11.77-4.94-7.09-10.55,7.62-14.19,10.51-4.31,3.43-10.31,4.07-15.62,3.72v-12.48c-6.5-1.29-9.28,4.28-14.58,7.24-8.22,4.6-18.79,6.52-28.14,4.93-3.76-.64-9.55-2.6-8.41-7.18,6.9,3.27,13.64-11.94,10.04-14.41-13.28-1.98-27.02-.86-40.21-3.42-19.32-3.75-47.75-26.46-55.48,3.5.06.67,2.32,2.99,2.74,3.1ZM762.15,1293.15c11.95,6.03,17.43,6.77,20.92-7.94-6.21-7.12-19.97-17.97-22.2-2.04l-12.83-4.84c-12.6,12.65-7.08,19.25,8.3,23.34l5.81-8.53Z"/>
      <path class="cls-1" d="M825.88,533.67c.29-22.4,17.55-24.07,35.08-17,14.49,5.83,9,10.81,7.16,23.38,15.52,1.23,31.53-4.61,44.86-11.84-11.04-6.84-24.91-3.92-36.81-8.06-1.85-2.36,5.81-14.14,10.05-14.97,12-2.34,34.16,9.72,47.69,12.1,9.82,1.72,25.1.18,32.99,3.16,6.3,2.38-.74,10.56-3.6,14.43-10.3.39-19.02-.58-29.11,2.06-27.79,7.29-53.76,34.74-83.94,13.32-21.07,12.52-47.01,15.88-71.28,13.48-12.19-1.21-23.33-8.38-31.18-17.42-5.51,14.55-18.22,20.2-32.94,14.21l-10.06-10.49c-3.6,18.17-22.62,12.35-36.17,16.21-.3,1.79,2.16,1.69,3.47,2.11,13.45,4.32,28.49,2.92,17.98,22.45-8.32,15.44-49.93,33.14-66.95,32.89-38.11-.56-40.26-44.29-22.87-69.09,3.05-4.35,7.08-3.75,7.03.79-.04,4.16-6.71,16.08-7.21,23.95-2.56,40.11,46.49,25.03,67.76,14.14,2.24-1.15,16.81-8.64,13.27-12.28l-34.71-7.68c0-15.63,20.38-22.69,33.17-25.66,4.16-.97,10.45-.58,14.35-1.86,9.52-3.13,1.08-28.07,1.04-35.39-.03-5.25.74-15.69,7.34-12.33,9.34,4.74,2.64,56.16,29.39,45.6,7.52-2.97,7.01-10.13,6.81-16.98-.65-22.48-5.87-46.94-6.34-69.71-.08-3.7.03-24.96,3.29-25.69l4.31.65c3.52,2.31,6.43,55.94,7.59,64.72,3.22,24.31,2.81,43.82,30.71,49.09,13.26,2.5,43.32-.34,55.56-6.14,6.35-3.01-7.31-5.51-7.72-6.15Z"/>
      <path class="cls-1" d="M801.41,1203.37c-.43-.12-2.68-2.43-2.74-3.1,7.73-29.97,36.17-7.26,55.48-3.5,13.19,2.56,26.93,1.44,40.21,3.42,3.61,2.47-3.14,17.68-10.04,14.41-1.14,4.58,4.65,6.54,8.41,7.18,9.35,1.59,19.92-.33,28.14-4.93,5.29-2.96,8.08-8.53,14.58-7.24v12.48c5.31.36,11.31-.29,15.62-3.72,3.64-2.89,9.25-17.6,14.19-10.51,3.25,4.66-3.61,13.33,5.7,11.77,5.14-.86,7.7-22.91,14.2-11.73,3.63,6.24.29,12.23,11.95,11.71,20.42-.91,7.27-13.76,8.09-26.89.67-10.63,8.09-9.91,12.37-2.28,10.08,17.93,1.11,47.9-22.9,47.82-6.16-.02-14.16-6.01-14.97-6-.63,0-2.47,2.57-4.01,3.24-10.34,4.51-16.5-2.83-20.74-1.97-1.86.38-5.66,5.07-11.5,5.87-10.66,1.47-18.18-3.48-23.36-3.32-7.66.24-16.2,5.76-27.52,4.53-16.42-1.79-17.74-12.61-21.48-26.12-24.74,4.14-44.26,21.22-68.99,25.71-11.73,2.13-21.07,3.18-28.54-7.75-1.89-2.77-5.6-14.72-8.28-14.12l-12.51,9.95c-5.29,39.44-32.84,67.87-73.39,45.99-2.86-1.54-5.29-1.92-4.52-6.07,13.19,1.04,26.04,1.25,38.24-4.78,8.15-4.03,30.2-23.36,28.85-32.98-.43-3.08-4.47-7.23-4.67-11.59-.1-2.07,1.45-9.31,2.52-11.02,2.52-4.02,4.23-.22,7.02.25,6.2,1.04,14.22-1.43,16.65-7.75,1.19-3.08,2.48-23.73,8.9-10.33,4.03,8.42,3.91,23.49,12.13,30.27,11.56,9.53,40.01-5.25,52.44-9.45.52-2.82-.15-1.98-1.58-2.77-1.73-.95-13.78-4.69-15.25-4.69-4.43,0-15.43.89-18.7,0Z"/>
      <path class="cls-1" d="M836.96,351.78c-3.02,11.56-16.58,15.85-27.45,16.21,3.37,8.81,6.3,14.15,4.88,24.2-4.53,32.04-41.74.89-39.1-19.28l-19.87-2.52-1.91,4.53c-3.87,2.88-17.8-4.73-22.93-4.53-5.97,12.73-17.93,20.08-31.05,24.12-9.61,2.96-30.21,7.26-12.08-5.85,5.72-4.14,33.06-19.7,33.56-25.07.19-2.05-1.32-4.85-1.34-7.44-.07-6.14,3.62-19.29,10.01-21.3,10.83-3.41,21.68,17.42,35.69,19.29,18.73,2.51,15.84-7.4,22.32-19.86,2.99-5.75,10.54-18.72,17.51-18.55,13.84.34,4.66,30.74-1.9,37.26,14.75-2.36,30.43-3.19,30.01-21.83-.47-20.65-6.49-44.82-7.55-66.07-.19-3.77-.4-24.09,1.3-25.49,2.77-2.27,6.21,1.6,7.09,4.63,4.87,16.62,4.96,45.51,8.01,64.31,1.5,9.23,3.99,31.56,10.19,37.81,5.83,5.88,17.17,7.42,17.14-3.93-.07-28.87-9.87-59.29-11.32-87.3-.2-3.94-.74-24.86,6.63-22.92,1.42.64,2.42,1.82,3.17,3.14.68,1.2,6.32,14.07,6.37,14.87.2,3.07-2.11,5.78-2.37,8.76-2.69,30.23,14.97,72.47,4.23,100.23-4.31,11.15-18.65,11.26-27.4,5.03-2.93-2.08-9.89-13.92-11.82-12.47ZM800.78,334.32c-4.86-.28-6.8,4.58-7.47,8.72,5.03.38,8.22-4.09,7.47-8.72ZM789.57,374.22c-.35,5.57,5.53,11.02,10.39,12.7,1.88.65,1.49,1.48,3.32-.88.43-2.18-11.99-13.65-13.7-11.82Z"/>
      <path class="cls-1" d="M701.66,1023.83c3.98-.45,13.45-3.38,17.24-5.21,7.11-3.43,27.76-22.71,28.27-30.41.24-3.57-3.33-6.78-3.78-11.12-.32-3.16.73-15.05,4.4-15.31,16.08,7.29,23.24-4.1,24.34-18.99,1.35-.16,2.52-.09,3.75.59,5.65,3.13,4.98,25.4,14.3,33.09,9.85,8.13,24.4,2.21,33.97-3.47,4-2.37,7.51-9.08,12.66-3.31-.61,2.68-2.49,8.08.09,9.98,4.92.45,11.92-1.23,15.65-4.45s6.3-13.7,12.56-8.84c3.99,3.1-3.72,13.06,6.1,11.37,4.89-.84,5.85-12.65,10.18-13.55,6.72-1.4,4.35,10.79,7.91,12.89,27.74,6.42,14.41-21.41,14.93-37.47.15-4.72,1.2-17.91,7.59-11.22,4.73,4.96,5.28,33.23,12.63,43.48,5.4,7.54,15.73,5.3,23.26,1.88,2.19-3.56-8.48-28.11-.25-30.88,12.05-4.05,13.68,22.8,12.61,30.13-3.09,21.18-26.56,29.07-42.69,15.91-2.03-1.66-2.29-5.54-5.6-4.98-2.89,11.99-15.87,13.54-26.17,10.57-1.98-.57-4.16-2.67-5.84-2.82-2.21-.19-7.23,3.24-11.02,3.24-3.97,0-9.61-3.57-12.5-3.43-2.47.12-11.03,5.93-17.48,6.2s-12.61-3.5-17.5-3.73c-3.61-.17-9.42,3.03-13.75,3.55-22,2.64-27.94-4.56-36.02-23.53-2.07,4.19-9.87,6.67-11.72,9.45-2.11,3.18-3.75,14.16-5.76,19.18-5.65,14.1-21.21,33.64-37.39,34.96-6.64.54-31.09-5.95-36-9.9-1.44-1.16-.65-2.36-.77-3.83,6.99-.56,14.98.77,21.82,0Z"/>
      <path class="cls-1" d="M507.79,977.7c5.33-.43,7.12,5.39,11.57,7.73,9.74,5.12,23.37,4.08,33.91,4.75,36.38,2.29,80.79.43,117.21-3.77,9.18-1.06,25.94-.29,25.62-11.77-.97-34.49-7.86-70.27-10.04-104.79.74-3.48,2.48-13.18,6.88-13.14,2.46.02,9.92,9.32,10.91,11.6,2.57,5.89-1.46,7.23-2.49,11.83-6.02,26.99,6.27,73.76,3.47,105.71-1.39,15.84-12.52,14.86-25.77,16.62-43.84,5.83-109.54,9.5-153.18,5.13-20.55-2.06-24.33-10.39-18.09-29.9Z"/>
      <path class="cls-1" d="M690.63,1098.77c4.54-1.48,13.52,12.13,13.64,15.44.1,2.95-3.8,8.5-4.37,12.59-4.16,30.03,7.67,68.88,4.92,100.93-1.23,14.33-5.52,15.25-18.49,17.67-32.93,6.13-73.23,6.07-106.91,6.55-17.32.25-50.97,2.92-66.64-3.08-12.07-4.63-11.15-19.51-4.27-27.99,2.26-.48,4.4,4.47,6.31,6,15.44,12.35,65.93,8.25,85.79,7.62,26.61-.84,54.63-1.03,80.94-5.1,16.96-2.62,13.87-4.74,13.24-21.65-1.18-31.6-7.27-63.28-9.73-94.79.75-3.19,2.41-13.16,5.56-14.19Z"/>
      <path class="cls-1" d="M697,770.41c2.1-2.46.63-20.74.29-25.24-1.99-25.9-9.68-55.92-10.06-81.05-.05-3.57,2.39-15.47,6.95-15.11,3.17.25,11.68,10.84,11.72,13.83s-2.7,6.2-3.28,9.09c-5.41,27.38,7.41,69.86,4.69,101.95-.82,9.64-2.76,12.75-12.24,15.2-32.26,8.33-82.92,7.28-116.91,7.78-16.06.23-45.87,3.2-60.69-1.55-16.74-5.37-8.5-28.36-5.34-28.3,4.06,4.29,7.05,7.61,12.81,9.61,23.92,8.29,90.42,3.47,118.09,1.58,7.46-.51,51.01-4.33,53.95-7.77Z"/>
      <path class="cls-1" d="M952.9,755.75c.78,13.16-7.94,30.75,2.51,41.76,11.56,12.17,32.62,3.86,45.71-1.64,4.01-1.69,27.84-13.24,27.81-15.8-5.58-6.94-29.44-3.18-33.66-7.45-3.02-3.05-1-7,1.87-9.41,7.93-6.63,25.27-1.81,21.83-19.92-23.99,9.68-32.89-10.44-22.21-30.33,7.03-13.09,18.66-9.63,26.61.37,11.33,14.25,6.55,34.38,1.99,50.43.82,3.28,13.95,2.14,14.9,11.28,2.21,21.23-39.49,40.35-56.47,44.65-19.54,4.96-43.02-2.23-45.76-24.77-.93-7.7,4.34-28.47,7.99-35.44,1.83-3.5,2.34-4.23,6.86-3.73Z"/>
      <path class="cls-1" d="M692.94,818.1c12.18-1.52,41-22.08,43-34.38.98-6.03-3.22-7.56-3.8-12.33-.53-4.33.72-9.03,1.92-13.15l2.5-1.28c8.02,2.54,17.72,2.35,20.06-7.34.94-3.9-.77-11.67,3.64-12.66,6.45.22,7.51,15.02,9.66,20.37,5.59,13.96,18.48,21.72,30.72,10.02-2.6-9.33-7.62-17.79-3.47-27.69,19.33-.26,16.83,35.76,7.27,45.3-5.76,5.75-18.31,6.68-25.86,4.85-10.97-2.66-13.6-11.51-18.31-20.32l-12.47,8.7c-3.43,28.63-21.39,56-53.48,52.23-3.58-.42-19.86-5.66-22.43-7.49-2.16-1.54-2.33-2.17-2.02-4.84,7.32-.65,15.94.89,23.07,0Z"/>
      <path class="cls-1" d="M898.15,743.4c19.53-3.54,16.87,39.02,7.02,45.16-4.77,2.97-13.93,2.88-19.24,1.12-6.87-2.27-11.15-13.67-12.84-20.2-.94-.72-5.59,6.43-6.79,7.53-15.08,13.85-54.78,14.65-39.91-15.01,3.03-.86,5.5,3.93,8.94,4.72,7.58,1.72,26.37-1.95,29.64-9.74,5.68-13.57-11.08-41.86-1.18-56.07l6.22,4.95c1.78,11.4,11.07,62.41,20.56,66.71,3.25,1.48,9.92,1.34,11.03-2.74,1.21-4.47-9.13-18.84-3.46-26.42Z"/>
      <path class="cls-1" d="M1076.33,1220.83c-2.38.72-1.52,3.29-4.89,4.44-33.22,11.29-19.28-62.64,8.01-36.85,24.03,22.71-3.75,82.87-31.49,86.94-6.02.88-41.32-.72-42.68-6.55-1.09-4.64,12.39-2.87,15.42-3.26,12.53-1.63,22.28-4.78,32.37-12.52,8.93-6.86,23.03-20.67,23.27-32.2Z"/>
      <path class="cls-1" d="M1027.36,938.06c9.16-2.05,16.75,4.94,20.53,12.6,8.3,16.86,1.8,39.85-7.94,54.85-5.08,7.81-17.59,22.39-26.85,24.27-7.08,1.44-35.96-1.12-41.45-5.37-7.18-5.54,15.65-4.37,17.72-4.65,11.01-1.47,23.31-8.57,31.53-15.85,5.1-4.52,17.15-17.72,18.4-24.03,1.31-6.63-3.11-.29-5.98.28-26.76,5.26-18.54-39.27-5.94-42.1Z"/>
      <path class="cls-1" d="M986.17,447.9c2.74-.7,5.05,1.75,5.31,4.31,2.51,36.76,12.49,76.63,10.1,113.44-.28,4.33-1.26,20.62-6.92,20.59-3.14-.22-3.89-4.58-4.23-7.05-1.65-11.75-1.21-26.22-2.62-38.52-2.58-22.45-14.35-70.51-4.7-89.5.72-1.42,1.48-2.68,3.07-3.27Z"/>
      <path class="cls-1" d="M881.84,441.55c.37,7.36-6.3,13.86-12.49,16.8l-97.59,36.62c-7.14-1.65,2.71-12.26,5.98-14.77,12.8-9.81,54.21-24.14,71.04-29.95,4.76-1.64,30.61-11.15,33.07-8.7Z"/>
      <path class="cls-1" d="M1008.72,1088.95c1.49-.17,2.94-.65,4.46-.15l1.91,2.79c-1.41,2.61-2.97,5.36-4.87,7.64-7.26,8.69-38.98,17.22-51.4,22.16-14.81,5.89-36.91,17.6-51.03,21.28-3.05.79-6.23,2.11-8.51-1.04-2.37-11.97,53.03-32.96,62.95-36.78,10.94-4.2,36.19-14.72,46.49-15.9Z"/>
      <path class="cls-1" d="M910.03,242.16c4.63-1.57,5.61,2.34,6.39,5.82,5.97,26.59,11.07,81.27,9.04,108.14-.23,3-1.32,11.54-2.36,13.85-2.03,4.5-6.75,4.35-7.59-.13-2.35-12.6-1.14-27.87-2.52-41.12-2.66-25.51-12.98-56.87-5.62-81.71.49-1.65.78-4.21,2.66-4.85Z"/>
      <path class="cls-1" d="M912.69,863.25c12.02-1.68,3.47,9.41-1.29,13.72-24.02,7.69-48.52,22.54-72,30.23-3.43,1.13-6.99,3.05-9.39-.57-.63-1.38,4.53-8.21,5.7-9.35,7.06-6.88,66.66-32.6,76.98-34.04Z"/>
      <path class="cls-1" d="M819.49,684.67c-1.42-2.02,5.19-9.73,6.86-11.21,8.91-7.84,59.49-29.52,71.62-31.85,17.27-3.33,7.85,9.61-.71,14.24-22.6,5.78-46.32,21.87-67.86,28.14-3.61,1.05-6.17,2.24-9.92.68Z"/>
      <path class="cls-1" d="M777.08,1128.56c2.58-6.26,4.73-24.15,9.05-28.35,5.92-5.74,26.03,5.52,15.92,15.36-2.62,1.62-6.61-3.53-9.2-3.03-6.44,1.23-6.74,28.62-8.85,34.78-1.35,3.95-4.56,4.85-8.16,3.08-3.96-1.95-5.22-14.95-9.91-20.01-7.61-8.21-24.72-5.4-15.06-23.74,14.11-.55,19.34,12.24,26.21,21.92Z"/>
      <path class="cls-1" d="M751.84,239.85c3.05-.44,7.34-1.35,7.81,2.77.04,3.5-6.16,9.15-9.11,10.91-20.47,12.18-52.65,17.22-74.12,29.44-12.59-.44,1.86-12.23,7.14-15.37,10.79-6.43,56.95-26.09,68.28-27.74Z"/>
      <path class="cls-1" d="M606.9,1194.64c.84-.1,7.78-1.56,5.61-3.72-2.94-.68-9.27-2.24-10.62-5.01-4.59-9.42,18.56-37.35,30.57-33.66,1.51,1.52-2.73,12.15-4.34,13.74-2.21,2.17-9.72.27-10.61,4.38-1.39,6.45,16.02,2.18,18.13,6.79,1.06,2.31-7.35,13.38-9.39,15.64-6.76,7.5-12.07,11.95-22.8,10.26-3.6-.57-15.54-3.89-15.88-8.42,6.15-.54,13.33.74,19.33,0Z"/>
      <path class="cls-1" d="M633.66,910.44c.85,1.19-3.03,11.33-4.29,12.41-2.91,2.49-13-.24-9.89,7.54,3.46,2.46,15.17-.62,16.61,4.48s-13.46,21.41-18.17,23.91c-6.7,3.57-9.66,2.5-16.65.83-1.75-.42-15.36-4.21-12.45-6.86,4.64-.12,21.36.48,24.33-2.48s-4.88-3.33-6.78-4.49c-11.38-6.92,6.14-26.37,13.02-31.66,4.61-3.55,8.3-6.66,14.26-3.69Z"/>
      <path class="cls-1" d="M636.21,700.89c.06,7.25-2.51,16.99-11.22,14.27l-2.51,6.92,17.44,2.53c-.72,9.11-14.26,26.16-23.15,27.35-3.14.42-20.59-3.11-22.36-4.92-2.27-2.33-.68-1.96,1.21-2.55,8.08-2.51,16.92,1.27,23.1-4.33-5.02-4.53-12.57-1.34-12.57-9.97,0-10,18.24-32.56,30.05-29.31Z"/>
      <path class="cls-1" d="M638.68,505.13c-11.24-.26-8.64-17.37-14.08-23.31-6.22-6.79-24.49-4.12-15.92-22.3,13.93-1.34,18.87,13.07,26.26,21.92,2.04-5.08,5.57-23.45,9.25-26.3,5.92-4.57,19.84.67,18.21,10.64s-9.68-4.34-14.86,2.68c-3.8,5.15-6.69,35.16-8.86,36.66Z"/>
      <path class="cls-1" d="M692.47,294.59c9.02-3.78,8.29,9.76,12.74,9.63,6.09-.19,4.85-15.64,13.27-11.67,3.01,1.42,3.15,7.21,6.83,5.58,3.28-1.45,2.21-14.51,12.52-6.21,2.58,4.35-1.05,17.82-5.17,21.04-6.04,4.72-12.52,1.25-18.27,2.93-4.7,1.37-4.03,5.81-14,4.76-15.5-1.63-12.73-15.54-7.93-26.05Z"/>
      <path class="cls-1" d="M799.43,288.09c-1.47,1.04-5.02-1.51-7.34-.57-1.34.55-3.88,4.26-5.68,5.61-8.52,6.42-18.06,13.16-29.26,12.5-.33-2.17-.09-2.75,1.28-4.32,3.11-3.56,22.55-13.11,23.57-16.41,1.26-4.07-4.98-5.05-6.48-8.23-6.52-13.89,16.24-26.84,21.82-13.11,2.57,6.32-.95,9.56-.34,13.96.29,2.12,6.7,7.53,2.42,10.56Z"/>
      <path class="cls-1" d="M787.88,883.37c10.41,11.45-3.83,33.51-21.09,25.45-13.28-6.2-.74-31.35,4.29-40.62l4.87.3c2.04,1.48.42,5.97,1.75,8.22.67,1.14,8.11,4.37,10.18,6.65ZM770.86,897.9c12.54,1.45,13.23-9.68,1.35-9.87l-1.35,9.87Z"/>
      <path class="cls-1" d="M761.24,660.66c3.26,4.03,12.8,4.91,13.31,13.49.86,14.58-14.75,25.98-26.57,16.59-7.29-5.79.66-33.32,5.97-37.31,6.32-4.74,5.17,4.61,7.29,7.23ZM763.07,679.4l.95-3.46-8.11-6.21c-.3,4.74-5.31,11.12,1.82,11.29,1.46.03,4.25-.62,5.34-1.62Z"/>
      <path class="cls-1" d="M1010.36,1159.82l-4.07,8.42c-13.86-1.98-25.33-9.41-12.24-22.89,5.45-2.7,10.1,5.01,12.97,4.33,2.94-1.88,3.33-8.47,7.35-8.41,3.04.04,14.79,6.18,15.65,9.39.77,2.88-4.13,13.38-6.64,13.66l-13.02-4.5Z"/>
      <path class="cls-1" d="M766.02,1048.91c-.17,13.67-20.84,3.15-21.36-2.05-.31-3.15,3.55-12.05,6.61-13.43,3.61-1.63,8.94,5.06,12.54,4.01l4.53-6.79c4.55-2.82,21.12,5.19,17.76,14.02-5.9,15.52-15.96,1.23-20.08,4.24Z"/>
      <path class="cls-1" d="M762.15,1293.15l-5.81,8.53c-15.38-4.09-20.9-10.69-8.3-23.34l12.83,4.84c2.23-15.93,15.99-5.09,22.2,2.04-3.49,14.71-8.97,13.97-20.92,7.94Z"/>
      <path class="cls-1" d="M759.14,823.24c5.52,1.09,17.77,7.13,16.19,13.56-2.94,11.98-9.77,9.22-18.69,5.08-6.08,13.94-13.71,6.95-22.61-.12-1.46-3.49,4.42-11.75,6.91-14.38l11.86,4.14,6.34-8.27Z"/>
      <path class="cls-1" d="M950.04,918.75c-2.48,2.17-7.09-.05-9.94-1.21-11.56-4.72-8.93-6.63-3.72-16.55-5.84-6.51-10.86-2.63-6.39-12.92,3.64-8.38,4.66-8.72,12.91-5.73,17.07,6.19,3.32,11.12,5.11,17.24,1.63,2.94,8.8,3.64,8.44,7.44-.11,1.09-5.47,10.91-6.41,11.73Z"/>
      <path class="cls-1" d="M925.22,1033.53c-5.38,1.79-9.26-1.88-13.97-3.39-2.7.63-2.71,9.02-8.74,8.65-2.78-.17-14.23-6.03-14.39-9.3,3.91-16,8-14.25,21.12-8.16.74-11.76,8.79-8.83,16.28-4.43,9.26,5.45,3.24,9.31-.31,16.63Z"/>
      <path class="cls-1" d="M985.41,849.35l-5.69,8.28c-3.79-1.58-15.06-6.37-15.67-10.26,2.31-13.94,7.58-16.48,19.42-8.19l4.32-6.79c3.03-1.83,14.72,4.07,16.35,6.21,2.74,3.61-1.82,10.5-3.84,13.81-5.04,3.1-12.41-4.89-14.88-3.06Z"/>
      <path class="cls-1" d="M674.53,637.62c2.84,2.88.48,9.2-1.6,12.09-6.49,9-11.39-1.2-15.95.17-6.38,12.28-14.04,4.62-21.79-2.13,4.56-22.13,12.73-8.06,18.98-9.1,1.44-.24,1.53-7.94,7.48-7.59,1.34.08,12.02,5.69,12.88,6.56Z"/>
      <path class="cls-1" d="M902.79,720.59c-4.06,2.38-15.29-4.75-17.82-8.44l5.59-13.21c2.83-1.8,10.31,2.76,13.12,4.33l4.32-6.8c14.04-.23,25.59,11.43,9.91,21.34l-10.39-4.36-4.73,7.13Z"/>
      <path class="cls-1" d="M847.78,1146.19c3.98-1,14.53,6.41,17.25,9.78-4.31,18.54-13.86,14.15-24.18,2.88-.62-2.41,4.48-12.04,6.93-12.65Z"/>
      <path class="cls-1" d="M809.13,822.21c3.23,3.84-1.77,16.49-10.48,13.62-12.95-4.26-14.66-10.88-5.75-21.35,3.17-1.02,14.17,5.28,16.23,7.73Z"/>
      <path class="cls-1" d="M916.31,565.19c2.28-.42,16.07,7.63,16.28,10.37l-7.9,12.94-15.27-8.14c-1.13-3.37,3.3-14.51,6.89-15.17Z"/>
      <path class="cls-1" d="M996.13,667.35c2.93-.92,16.14,6.37,17.31,8.62,1.53,2.95-3.25,11.89-5.69,13.15-2.64,1.36-15.59-5.36-16.87-8.22-1-2.22,2.84-12.79,5.25-13.55Z"/>
      <path class="cls-1" d="M687.7,472.36c-3.31-3.91,2.1-14.85,5.48-15.7,3.63-.91,12.76,6.47,15.18,9.45.94,3.22-3.05,10.33-5.65,12.71-2.35.68-13.42-4.58-15.02-6.47Z"/>
      <path d="M789.57,374.22c1.72-1.83,14.13,9.64,13.7,11.82-1.82,2.36-1.44,1.53-3.32.88-4.86-1.68-10.73-7.13-10.39-12.7Z"/>
      <path d="M800.78,334.32c.75,4.62-2.44,9.1-7.47,8.72.67-4.14,2.61-8.99,7.47-8.72Z"/>
      <path d="M770.86,897.9l1.35-9.87c11.88.19,11.19,11.31-1.35,9.87Z"/>
      <path d="M763.07,679.4c-1.09.99-3.87,1.65-5.34,1.62-7.13-.17-2.12-6.54-1.82-11.29l8.11,6.21-.95,3.46Z"/>
    </g>
  </g>
</svg>